<svg xmlns="http://www.w3.org/2000/svg" xmlns:xlink="http://www.w3.org/1999/xlink" width="53" height="53" viewBox="0 0 53 53"><defs><style>.a{fill:#feb727;}.b{fill:#842232;}.c{filter:url(#a);}</style><filter id="a" x="0" y="0" width="53" height="53" filterUnits="userSpaceOnUse"><feOffset dy="3" input="SourceAlpha"/><feGaussianBlur stdDeviation="3" result="b"/><feFlood flood-opacity="0.161"/><feComposite operator="in" in2="b"/><feComposite in="SourceGraphic"/></filter></defs><g transform="translate(9 6)"><g class="c" transform="matrix(1, 0, 0, 1, -9, -6)"><circle class="a" cx="17.5" cy="17.5" r="17.5" transform="translate(9 6)"/></g><g transform="translate(12 -38.361)"><path class="b" d="M11.353,52.9l-1.014-1.014a.72.72,0,0,0-1.014,0l-4.893,4.9-2.193-2.2a.69.69,0,0,0-.507-.209.691.691,0,0,0-.507.209L.209,55.6a.72.72,0,0,0,0,1.015l2.7,2.7,1.015,1.014a.72.72,0,0,0,1.014,0l1.014-1.014,5.4-5.4a.72.72,0,0,0,0-1.015Z"/></g></g></svg>